<svg xmlns="http://www.w3.org/2000/svg" xmlns:xlink="http://www.w3.org/1999/xlink" contentStyleType="text/css" data-diagram-type="CLASS" height="544px" preserveAspectRatio="none" style="width:703px;height:544px;background:#FFFFFF;" version="1.1" viewBox="0 0 703 544" width="703px" zoomAndPan="magnify"><defs/><g><!--class Animal--><g id="elem_Animal"><rect codeLine="28" fill="#F1F1F1" height="143.3396" id="Animal" rx="2.5" ry="2.5" style="stroke:#181818;stroke-width:0.5;" width="171.7954" x="230.18" y="7"/><ellipse cx="288.9448" cy="23" fill="#ADD1B2" rx="11" ry="11" style="stroke:#181818;stroke-width:1;"/><path d="M288.4136,29.9219 Q286.6636,29.9219 285.5229,29.1875 Q284.3979,28.4375 283.8354,27.0938 Q283.2886,25.7344 283.2886,23.9375 Q283.2886,21.9063 283.9448,20.4531 Q284.6011,19 285.8823,18.2188 Q287.1636,17.4375 289.0386,17.4375 Q289.9292,17.4375 290.6011,17.625 Q291.2729,17.7969 291.9604,18.1406 L291.1479,20.1563 Q290.5229,19.8438 289.9761,19.7188 Q289.4448,19.5938 288.9604,19.5938 Q287.7886,19.5938 287.0854,20.125 Q286.3823,20.6563 286.0854,21.6094 Q285.7886,22.5625 285.7886,23.8281 Q285.7886,25.8438 286.5073,26.8125 Q287.2261,27.7656 288.8198,27.7656 Q289.4136,27.7656 290.0386,27.6094 Q290.6636,27.4531 291.4917,27.0781 L291.4917,29.2969 Q290.7573,29.6094 289.9604,29.7656 Q289.1792,29.9219 288.4136,29.9219 Z " fill="#000000"/><text fill="#000000" font-family="sans-serif" font-size="14" lengthAdjust="spacing" textLength="45.7658" x="309.4448" y="28.432">Animal</text><line style="stroke:#181818;stroke-width:0.5;" x1="231.18" x2="400.9754" y1="39" y2="39"/><rect fill="transparent" height="6" style="stroke:#C82930;stroke-width:1;" width="6" x="238.18" y="51.034"/><text fill="#000000" font-family="sans-serif" font-size="14" lengthAdjust="spacing" textLength="145.7954" x="250.18" y="57.9659">nameOfAnimal: String</text><rect fill="transparent" height="6" style="stroke:#C82930;stroke-width:1;" width="6" x="238.18" y="70.1019"/><text fill="#000000" font-family="sans-serif" font-size="14" lengthAdjust="spacing" textLength="69.5377" x="250.18" y="77.0339">weight: int</text><rect fill="transparent" height="6" style="stroke:#C82930;stroke-width:1;" width="6" x="238.18" y="89.1698"/><text fill="#000000" font-family="sans-serif" font-size="14" lengthAdjust="spacing" textLength="67.1857" x="250.18" y="96.1018">height: int</text><rect fill="transparent" height="6" style="stroke:#C82930;stroke-width:1;" width="6" x="238.18" y="108.2377"/><text fill="#000000" font-family="sans-serif" font-size="14" lengthAdjust="spacing" textLength="49.0698" x="250.18" y="115.1697">age: int</text><line style="stroke:#181818;stroke-width:0.5;" x1="231.18" x2="400.9754" y1="123.2717" y2="123.2717"/><ellipse cx="241.18" cy="138.3056" fill="#84BE84" rx="3" ry="3" style="stroke:#038048;stroke-width:1;"/><text fill="#000000" font-family="sans-serif" font-size="14" lengthAdjust="spacing" textLength="82.8937" x="250.18" y="142.2376">eatingFood()</text></g><!--class Eat--><g id="elem_Eat"><rect codeLine="63" fill="#F1F1F1" height="86.1358" id="Eat" rx="2.5" ry="2.5" style="stroke:#181818;stroke-width:0.5;" width="148.1635" x="7" y="451.81"/><ellipse cx="66.9338" cy="467.81" fill="#B4A7E5" rx="11" ry="11" style="stroke:#181818;stroke-width:1;"/><path d="M62.9651,474.31 L62.9651,472.6069 L65.3244,472.3413 L65.3244,464.1381 L62.9651,463.8725 L62.9651,462.1694 L70.1057,462.1694 L70.1057,463.8725 L67.6838,464.1381 L67.6838,472.3413 L70.1057,472.6069 L70.1057,474.31 L62.9651,474.31 Z " fill="#000000"/><text fill="#000000" font-family="sans-serif" font-size="14" font-style="italic" lengthAdjust="spacing" textLength="19.7959" x="87.4338" y="473.242">Eat</text><line style="stroke:#181818;stroke-width:0.5;" x1="8" x2="154.1635" y1="483.81" y2="483.81"/><line style="stroke:#181818;stroke-width:0.5;" x1="8" x2="154.1635" y1="491.81" y2="491.81"/><ellipse cx="18" cy="506.844" fill="#84BE84" rx="3" ry="3" style="stroke:#038048;stroke-width:1;"/><text fill="#000000" font-family="sans-serif" font-size="14" lengthAdjust="spacing" textLength="82.8937" x="27" y="510.7759">eatingFood()</text><ellipse cx="18" cy="525.9119" fill="#84BE84" rx="3" ry="3" style="stroke:#038048;stroke-width:1;"/><text fill="#000000" font-family="sans-serif" font-size="14" lengthAdjust="spacing" textLength="122.1635" x="27" y="529.8439">eatingCompleted()</text></g><!--class Swim--><g id="elem_Swim"><rect codeLine="72" fill="#F1F1F1" height="67.0679" id="Swim" rx="2.5" ry="2.5" style="stroke:#181818;stroke-width:0.5;" width="102.7757" x="337.69" y="461.35"/><ellipse cx="369.6648" cy="477.35" fill="#B4A7E5" rx="11" ry="11" style="stroke:#181818;stroke-width:1;"/><path d="M365.6961,483.85 L365.6961,482.1469 L368.0554,481.8813 L368.0554,473.6781 L365.6961,473.4125 L365.6961,471.7094 L372.8367,471.7094 L372.8367,473.4125 L370.4148,473.6781 L370.4148,481.8813 L372.8367,482.1469 L372.8367,483.85 L365.6961,483.85 Z " fill="#000000"/><text fill="#000000" font-family="sans-serif" font-size="14" font-style="italic" lengthAdjust="spacing" textLength="33.0539" x="387.437" y="482.782">Swim</text><line style="stroke:#181818;stroke-width:0.5;" x1="338.69" x2="439.4657" y1="493.35" y2="493.35"/><line style="stroke:#181818;stroke-width:0.5;" x1="338.69" x2="439.4657" y1="501.35" y2="501.35"/><ellipse cx="348.69" cy="516.384" fill="#84BE84" rx="3" ry="3" style="stroke:#038048;stroke-width:1;"/><text fill="#000000" font-family="sans-serif" font-size="14" lengthAdjust="spacing" textLength="76.7757" x="357.69" y="520.3159">swimming()</text></g><!--class Walk--><g id="elem_Walk"><rect codeLine="68" fill="#F1F1F1" height="67.0679" id="Walk" rx="2.5" ry="2.5" style="stroke:#181818;stroke-width:0.5;" width="85.2198" x="190.47" y="461.35"/><ellipse cx="215.7038" cy="477.35" fill="#B4A7E5" rx="11" ry="11" style="stroke:#181818;stroke-width:1;"/><path d="M211.7351,483.85 L211.7351,482.1469 L214.0945,481.8813 L214.0945,473.6781 L211.7351,473.4125 L211.7351,471.7094 L218.8757,471.7094 L218.8757,473.4125 L216.4538,473.6781 L216.4538,481.8813 L218.8757,482.1469 L218.8757,483.85 L211.7351,483.85 Z " fill="#000000"/><text fill="#000000" font-family="sans-serif" font-size="14" font-style="italic" lengthAdjust="spacing" textLength="30.4779" x="231.978" y="482.782">Walk</text><line style="stroke:#181818;stroke-width:0.5;" x1="191.47" x2="274.6898" y1="493.35" y2="493.35"/><line style="stroke:#181818;stroke-width:0.5;" x1="191.47" x2="274.6898" y1="501.35" y2="501.35"/><ellipse cx="201.47" cy="516.384" fill="#84BE84" rx="3" ry="3" style="stroke:#038048;stroke-width:1;"/><text fill="#000000" font-family="sans-serif" font-size="14" lengthAdjust="spacing" textLength="59.2198" x="210.47" y="520.3159">walking()</text></g><!--class Dolphin--><g id="elem_Dolphin"><rect codeLine="36" fill="#F1F1F1" height="143.3396" id="Dolphin" rx="2.5" ry="2.5" style="stroke:#181818;stroke-width:0.5;" width="160.7635" x="335.7" y="229.41"/><ellipse cx="385.9178" cy="245.41" fill="#ADD1B2" rx="11" ry="11" style="stroke:#181818;stroke-width:1;"/><path d="M385.3866,252.3319 Q383.6366,252.3319 382.496,251.5975 Q381.371,250.8475 380.8085,249.5038 Q380.2616,248.1444 380.2616,246.3475 Q380.2616,244.3163 380.9178,242.8631 Q381.5741,241.41 382.8553,240.6288 Q384.1366,239.8475 386.0116,239.8475 Q386.9022,239.8475 387.5741,240.035 Q388.246,240.2069 388.9335,240.5506 L388.121,242.5663 Q387.496,242.2538 386.9491,242.1288 Q386.4178,242.0038 385.9335,242.0038 Q384.7616,242.0038 384.0585,242.535 Q383.3553,243.0663 383.0585,244.0194 Q382.7616,244.9725 382.7616,246.2381 Q382.7616,248.2538 383.4803,249.2225 Q384.1991,250.1756 385.7928,250.1756 Q386.3866,250.1756 387.0116,250.0194 Q387.6366,249.8631 388.4647,249.4881 L388.4647,251.7069 Q387.7303,252.0194 386.9335,252.1756 Q386.1522,252.3319 385.3866,252.3319 Z " fill="#000000"/><text fill="#000000" font-family="sans-serif" font-size="14" lengthAdjust="spacing" textLength="51.8278" x="406.4178" y="250.842">Dolphin</text><line style="stroke:#181818;stroke-width:0.5;" x1="336.7" x2="495.4635" y1="261.41" y2="261.41"/><rect fill="transparent" height="6" style="stroke:#C82930;stroke-width:1;" width="6" x="343.7" y="273.444"/><text fill="#000000" font-family="sans-serif" font-size="14" lengthAdjust="spacing" textLength="79.8417" x="355.7" y="280.3759">color: String</text><rect fill="transparent" height="6" style="stroke:#C82930;stroke-width:1;" width="6" x="343.7" y="292.5119"/><text fill="#000000" font-family="sans-serif" font-size="14" lengthAdjust="spacing" textLength="134.7635" x="355.7" y="299.4439">SwimmingSpeed: int</text><line style="stroke:#181818;stroke-width:0.5;" x1="336.7" x2="495.4635" y1="307.5458" y2="307.5458"/><ellipse cx="346.7" cy="322.5798" fill="#84BE84" rx="3" ry="3" style="stroke:#038048;stroke-width:1;"/><text fill="#000000" font-family="sans-serif" font-size="14" lengthAdjust="spacing" textLength="82.8937" x="355.7" y="326.5118">eatingFood()</text><ellipse cx="346.7" cy="341.6477" fill="#84BE84" rx="3" ry="3" style="stroke:#038048;stroke-width:1;"/><text fill="#000000" font-family="sans-serif" font-size="14" lengthAdjust="spacing" textLength="122.1635" x="355.7" y="345.5797">eatingCompleted()</text><ellipse cx="346.7" cy="360.7156" fill="#84BE84" rx="3" ry="3" style="stroke:#038048;stroke-width:1;"/><text fill="#000000" font-family="sans-serif" font-size="14" lengthAdjust="spacing" textLength="76.7757" x="355.7" y="364.6476">swimming()</text></g><!--class Penguin--><g id="elem_Penguin"><rect codeLine="44" fill="#F1F1F1" height="181.4754" id="Penguin" rx="2.5" ry="2.5" style="stroke:#181818;stroke-width:0.5;" width="166.6295" x="133.77" y="210.34"/><ellipse cx="185.5628" cy="226.34" fill="#ADD1B2" rx="11" ry="11" style="stroke:#181818;stroke-width:1;"/><path d="M185.0316,233.2619 Q183.2816,233.2619 182.141,232.5275 Q181.016,231.7775 180.4535,230.4338 Q179.9066,229.0744 179.9066,227.2775 Q179.9066,225.2463 180.5628,223.7931 Q181.2191,222.34 182.5003,221.5588 Q183.7816,220.7775 185.6566,220.7775 Q186.5472,220.7775 187.2191,220.965 Q187.891,221.1369 188.5785,221.4806 L187.766,223.4963 Q187.141,223.1838 186.5941,223.0588 Q186.0628,222.9338 185.5785,222.9338 Q184.4066,222.9338 183.7035,223.465 Q183.0003,223.9963 182.7035,224.9494 Q182.4066,225.9025 182.4066,227.1681 Q182.4066,229.1838 183.1253,230.1525 Q183.8441,231.1056 185.4378,231.1056 Q186.0316,231.1056 186.6566,230.9494 Q187.2816,230.7931 188.1097,230.4181 L188.1097,232.6369 Q187.3753,232.9494 186.5785,233.1056 Q185.7972,233.2619 185.0316,233.2619 Z " fill="#000000"/><text fill="#000000" font-family="sans-serif" font-size="14" lengthAdjust="spacing" textLength="54.5438" x="206.0628" y="231.772">Penguin</text><line style="stroke:#181818;stroke-width:0.5;" x1="134.77" x2="299.3995" y1="242.34" y2="242.34"/><rect fill="transparent" height="6" style="stroke:#C82930;stroke-width:1;" width="6" x="141.77" y="254.374"/><text fill="#000000" font-family="sans-serif" font-size="14" lengthAdjust="spacing" textLength="140.6295" x="153.77" y="261.3059">isSwimming: boolean</text><rect fill="transparent" height="6" style="stroke:#C82930;stroke-width:1;" width="6" x="141.77" y="273.4419"/><text fill="#000000" font-family="sans-serif" font-size="14" lengthAdjust="spacing" textLength="99.8196" x="153.77" y="280.3739">swimSpeed: int</text><rect fill="transparent" height="6" style="stroke:#C82930;stroke-width:1;" width="6" x="141.77" y="292.5098"/><text fill="#000000" font-family="sans-serif" font-size="14" lengthAdjust="spacing" textLength="95.3536" x="153.77" y="299.4418">walkSpeed: int</text><line style="stroke:#181818;stroke-width:0.5;" x1="134.77" x2="299.3995" y1="307.5438" y2="307.5438"/><ellipse cx="144.77" cy="322.5777" fill="#84BE84" rx="3" ry="3" style="stroke:#038048;stroke-width:1;"/><text fill="#000000" font-family="sans-serif" font-size="14" lengthAdjust="spacing" textLength="82.8937" x="153.77" y="326.5097">eatingFood()</text><ellipse cx="144.77" cy="341.6456" fill="#84BE84" rx="3" ry="3" style="stroke:#038048;stroke-width:1;"/><text fill="#000000" font-family="sans-serif" font-size="14" lengthAdjust="spacing" textLength="122.1635" x="153.77" y="345.5776">eatingCompleted()</text><ellipse cx="144.77" cy="360.7135" fill="#84BE84" rx="3" ry="3" style="stroke:#038048;stroke-width:1;"/><text fill="#000000" font-family="sans-serif" font-size="14" lengthAdjust="spacing" textLength="59.2198" x="153.77" y="364.6455">walking()</text><ellipse cx="144.77" cy="379.7815" fill="#84BE84" rx="3" ry="3" style="stroke:#038048;stroke-width:1;"/><text fill="#000000" font-family="sans-serif" font-size="14" lengthAdjust="spacing" textLength="76.7757" x="153.77" y="383.7134">swimming()</text></g><!--class Tiger--><g id="elem_Tiger"><rect codeLine="54" fill="#F1F1F1" height="162.4075" id="Tiger" rx="2.5" ry="2.5" style="stroke:#181818;stroke-width:0.5;" width="164.4875" x="531.84" y="219.87"/><ellipse cx="592.9918" cy="235.87" fill="#ADD1B2" rx="11" ry="11" style="stroke:#181818;stroke-width:1;"/><path d="M592.4606,242.7919 Q590.7106,242.7919 589.5699,242.0575 Q588.4449,241.3075 587.8824,239.9638 Q587.3356,238.6044 587.3356,236.8075 Q587.3356,234.7763 587.9918,233.3231 Q588.6481,231.87 589.9293,231.0888 Q591.2106,230.3075 593.0856,230.3075 Q593.9762,230.3075 594.6481,230.495 Q595.3199,230.6669 596.0074,231.0106 L595.1949,233.0263 Q594.5699,232.7138 594.0231,232.5888 Q593.4918,232.4638 593.0074,232.4638 Q591.8356,232.4638 591.1324,232.995 Q590.4293,233.5263 590.1324,234.4794 Q589.8356,235.4325 589.8356,236.6981 Q589.8356,238.7138 590.5543,239.6825 Q591.2731,240.6356 592.8668,240.6356 Q593.4606,240.6356 594.0856,240.4794 Q594.7106,240.3231 595.5387,239.9481 L595.5387,242.1669 Q594.8043,242.4794 594.0074,242.6356 Q593.2262,242.7919 592.4606,242.7919 Z " fill="#000000"/><text fill="#000000" font-family="sans-serif" font-size="14" lengthAdjust="spacing" textLength="33.6839" x="613.4918" y="241.302">Tiger</text><line style="stroke:#181818;stroke-width:0.5;" x1="532.84" x2="695.3275" y1="251.87" y2="251.87"/><rect fill="transparent" height="6" style="stroke:#C82930;stroke-width:1;" width="6" x="539.84" y="263.904"/><text fill="#000000" font-family="sans-serif" font-size="14" lengthAdjust="spacing" textLength="138.4875" x="551.84" y="270.8359">numberOfStripes: int</text><rect fill="transparent" height="6" style="stroke:#C82930;stroke-width:1;" width="6" x="539.84" y="282.9719"/><text fill="#000000" font-family="sans-serif" font-size="14" lengthAdjust="spacing" textLength="64.4277" x="551.84" y="289.9039">speed: int</text><rect fill="transparent" height="6" style="stroke:#C82930;stroke-width:1;" width="6" x="539.84" y="302.0398"/><text fill="#000000" font-family="sans-serif" font-size="14" lengthAdjust="spacing" textLength="99.6516" x="551.84" y="308.9718">soundLevel: int</text><line style="stroke:#181818;stroke-width:0.5;" x1="532.84" x2="695.3275" y1="317.0738" y2="317.0738"/><ellipse cx="542.84" cy="332.1077" fill="#84BE84" rx="3" ry="3" style="stroke:#038048;stroke-width:1;"/><text fill="#000000" font-family="sans-serif" font-size="14" lengthAdjust="spacing" textLength="82.8937" x="551.84" y="336.0397">eatingFood()</text><ellipse cx="542.84" cy="351.1756" fill="#84BE84" rx="3" ry="3" style="stroke:#038048;stroke-width:1;"/><text fill="#000000" font-family="sans-serif" font-size="14" lengthAdjust="spacing" textLength="122.1635" x="551.84" y="355.1076">eatingCompleted()</text><ellipse cx="542.84" cy="370.2435" fill="#84BE84" rx="3" ry="3" style="stroke:#038048;stroke-width:1;"/><text fill="#000000" font-family="sans-serif" font-size="14" lengthAdjust="spacing" textLength="59.2198" x="551.84" y="374.1755">walking()</text></g><!--reverse link Animal to Eat--><g id="link_Animal_Eat"><path codeLine="77" d="M213.8055,123.2554 C172.5955,144.6554 142.58,167.84 116.08,210.34 C69.51,285.05 70.69,392.47 75.8,451.32 " fill="transparent" id="Animal-backto-Eat" style="stroke:#181818;stroke-width:1;"/><polygon fill="transparent" points="229.78,114.96,211.0403,117.9306,216.5706,128.5803,229.78,114.96" style="stroke:#181818;stroke-width:1;"/></g><!--reverse link Dolphin to Swim--><g id="link_Dolphin_Swim"><path codeLine="78" d="M403.556,391.0536 C399.316,421.1136 397.11,436.84 393.72,460.91 " fill="transparent" id="Dolphin-backto-Swim" style="stroke:#181818;stroke-width:1;"/><polygon fill="transparent" points="406.07,373.23,397.6148,390.2156,409.4972,391.8916,406.07,373.23" style="stroke:#181818;stroke-width:1;"/></g><!--reverse link Penguin to Eat--><g id="link_Penguin_Eat"><path codeLine="79" d="M142.8485,406.7633 C128.0785,427.5933 123.46,434.11 110.97,451.74 " fill="transparent" id="Penguin-backto-Eat" style="stroke:#181818;stroke-width:1;"/><polygon fill="transparent" points="153.26,392.08,137.954,403.2928,147.7429,410.2338,153.26,392.08" style="stroke:#181818;stroke-width:1;"/></g><!--reverse link Penguin to Swim--><g id="link_Penguin_Swim"><path codeLine="80" d="M309.808,405.4803 C331.978,430.2003 342.6,442.05 359.79,461.22 " fill="transparent" id="Penguin-backto-Swim" style="stroke:#181818;stroke-width:1;"/><polygon fill="transparent" points="297.79,392.08,305.3412,409.4863,314.2748,401.4743,297.79,392.08" style="stroke:#181818;stroke-width:1;"/></g><!--reverse link Penguin to Walk--><g id="link_Penguin_Walk"><path codeLine="81" d="M226.0848,410.0178 C228.1448,434.7378 228.76,442.05 230.36,461.22 " fill="transparent" id="Penguin-backto-Walk" style="stroke:#181818;stroke-width:1;"/><polygon fill="transparent" points="224.59,392.08,220.1055,410.5161,232.0641,409.5196,224.59,392.08" style="stroke:#181818;stroke-width:1;"/></g><!--reverse link Animal to Dolphin--><g id="link_Animal_Dolphin"><path codeLine="83" d="M355.7072,167.0117 C367.1272,192.1817 372.54,204.1 383.95,229.26 " fill="transparent" id="Animal-backto-Dolphin" style="stroke:#181818;stroke-width:1;"/><polygon fill="transparent" points="348.27,150.62,350.2433,169.4908,361.1711,164.5327,348.27,150.62" style="stroke:#181818;stroke-width:1;"/></g><!--reverse link Animal to Penguin--><g id="link_Animal_Penguin"><path codeLine="84" d="M276.835,167.0398 C268.355,185.9198 266.46,190.14 257.59,209.9 " fill="transparent" id="Animal-backto-Penguin" style="stroke:#181818;stroke-width:1;"/><polygon fill="transparent" points="284.21,150.62,271.3617,164.5815,282.3083,169.4981,284.21,150.62" style="stroke:#181818;stroke-width:1;"/></g><!--reverse link Animal to Tiger--><g id="link_Animal_Tiger"><path codeLine="85" d="M417.445,142.3578 C452.895,165.1278 478.71,183.03 514.08,210.34 C519.81,214.76 525.61,219.42 531.39,224.21 " fill="transparent" id="Animal-backto-Tiger" style="stroke:#181818;stroke-width:1;"/><polygon fill="transparent" points="402.3,132.63,414.2024,147.4061,420.6876,137.3095,402.3,132.63" style="stroke:#181818;stroke-width:1;"/></g><!--SRC=[bL99JiGm4Bpx5Jw2a3yGSK4i9wH12XBdJj99BBn4jaCEWR_ZRJGs349pSvMwgjmBTDOPw1tj1LXBxnIN80XN3iq8FT97S0LgDouB-0RYdP1IkHEcGE9XJB2XhJDSJOHjoAVPDTIB2PjB01Ecrms2yxLFMWzNr-JhQFoWnJ9pvPrxBRGvMORFIFzg5yJXd4L6zrek0Xr6ocPHcV22QbfZ0hT7quPsMWi4HLYG51biyrrVb1a4AV9i_2kVq8J1hR93SnX3VmlQd6QBPAjNDJpZ1uhBetrSjTNzVtKb2RlU_pGCOzj_jaVI4T3RJyRY8ULL9YBUKXxzgQGYVfUaYojzisV5PKd5nIcJRm00]--></g></svg>